<svg width="1em" height="1em" viewBox="0 0 16 20" fill="none" xmlns="http://www.w3.org/2000/svg">
<path fill-rule="evenodd" clip-rule="evenodd" d="M7.55896 11.7121C7.79351 11.804 8.05411 11.804 8.28866 11.7121L15.8476 8.75L16 17.922C16 18.4731 15.7893 19.0017 15.4142 19.3914C15.0391 19.7811 14.5304 20 14 20H2C1.46957 20 0.960859 19.7811 0.585787 19.3914C0.210714 19.0017 0 18.4731 0 17.922V8.75L7.55896 11.7121Z" fill="currentColor"/>
<path d="M6.4381 0C6.04406 0 5.66616 0.24677 5.38754 0.686023C5.10891 1.12528 4.95238 1.72103 4.95238 2.34223V3.12297H1.48571C1.09168 3.12297 0.713781 3.36974 0.435156 3.809C0.15653 4.24825 0 4.84401 0 5.4652L0 7.6263L7.54149 10.7961C7.792 10.9013 8.05562 10.9013 8.30613 10.7961L15.8476 7.6263V5.4652C15.8476 4.84401 15.6911 4.24825 15.4125 3.809C15.1338 3.36974 14.7559 3.12297 14.3619 3.12297H10.8952V2.34223C10.8952 1.72103 10.7387 1.12528 10.4601 0.686023C10.1815 0.24677 9.80356 0 9.40952 0H6.4381ZM6.4381 1.56149H9.40952C9.54087 1.56149 9.66683 1.64374 9.75971 1.79016C9.85259 1.93658 9.90476 2.13516 9.90476 2.34223V3.12297H5.94286V2.34223C5.94286 2.13516 5.99503 1.93658 6.08791 1.79016C6.18078 1.64374 6.30675 1.56149 6.4381 1.56149Z" fill="currentColor"/>
</svg>
