<svg width="1em" height="1em" viewBox="0 0 20 20" fill="none" xmlns="http://www.w3.org/2000/svg">
<g clip-path="url(#clip0_70_1398)">
<path fill-rule="evenodd" clip-rule="evenodd" d="M10 3.1149L18.75 11.7688V17.8365C18.75 18.4103 18.5195 18.9606 18.1093 19.3663C17.6991 19.7721 17.1427 20 16.5625 20H3.4375C2.85734 20 2.30094 19.7721 1.8907 19.3663C1.48047 18.9606 1.25 18.4103 1.25 17.8365V11.7688L10 3.1149ZM17.2917 1.97115V7.01923L14.375 4.13462V1.97115C14.375 1.77989 14.4518 1.59646 14.5886 1.46122C14.7253 1.32598 14.9108 1.25 15.1042 1.25H16.5625C16.7559 1.25 16.9414 1.32598 17.0781 1.46122C17.2148 1.59646 17.2917 1.77989 17.2917 1.97115Z" fill="currentColor"/>
<path fill-rule="evenodd" clip-rule="evenodd" d="M9.05741 0.400294C9.30743 0.143986 9.64648 0 10 0C10.3535 0 10.6926 0.143986 10.9426 0.400294L19.8045 9.48662C19.9297 9.61498 20 9.78908 20 9.97061C20 10.1521 19.9297 10.3262 19.8045 10.4546C19.6793 10.583 19.5096 10.6551 19.3325 10.6551C19.1555 10.6551 18.9858 10.583 18.8606 10.4546L10 1.3669L1.13941 10.4546C1.01424 10.583 0.844472 10.6551 0.667453 10.6551C0.490433 10.6551 0.320664 10.583 0.195492 10.4546C0.0703207 10.3262 0 10.1521 0 9.97061C0 9.78908 0.0703207 9.61498 0.195492 9.48662L9.05741 0.400294Z" fill="currentColor"/>
</g>
<defs>
<clipPath id="clip0_70_1398">
<rect width="1em" height="1em" fill="white"/>
</clipPath>
</defs>
</svg>
