<svg width="1em" height="1em" viewBox="0 0 17 17" fill="none" xmlns="http://www.w3.org/2000/svg">
<g clip-path="url(#clip0_78_2041)">
<path d="M13.4584 15.5833H3.54169C2.9781 15.5833 2.4376 15.3594 2.03909 14.9609C1.64057 14.5624 1.41669 14.0219 1.41669 13.4583V2.12499C1.41669 1.93713 1.49131 1.75696 1.62415 1.62412C1.75699 1.49128 1.93716 1.41666 2.12502 1.41666H12.0417C12.2296 1.41666 12.4097 1.49128 12.5426 1.62412C12.6754 1.75696 12.75 1.93713 12.75 2.12499V7.08332H15.5834V13.4583C15.5834 14.0219 15.3595 14.5624 14.961 14.9609C14.5624 15.3594 14.0219 15.5833 13.4584 15.5833ZM12.75 8.49999V13.4583C12.75 13.6462 12.8246 13.8264 12.9575 13.9592C13.0903 14.092 13.2705 14.1667 13.4584 14.1667C13.6462 14.1667 13.8264 14.092 13.9592 13.9592C14.0921 13.8264 14.1667 13.6462 14.1667 13.4583V8.49999H12.75ZM3.54169 4.24999V8.49999H7.79169V4.24999H3.54169ZM3.54169 9.20832V10.625H10.625V9.20832H3.54169ZM3.54169 11.3333V12.75H10.625V11.3333H3.54169ZM4.95835 5.66666H6.37502V7.08332H4.95835V5.66666Z" fill="currentColor"/>
</g>
<defs>
<clipPath id="clip0_78_2041">
<rect width="17" height="17" fill="white"/>
</clipPath>
</defs>
</svg>
