<svg width="24" height="24" viewBox="0 0 24 24" fill="none" xmlns="http://www.w3.org/2000/svg">
<path d="M1.12904 3.73298L4.14482 0.682373C4.35756 0.466031 4.61041 0.294378 4.88886 0.177275C5.16732 0.060172 5.46588 -7.31676e-05 5.76739 6.66876e-08C6.38187 6.66876e-08 6.95954 0.243705 7.3928 0.682373L10.6379 3.96808C10.8516 4.18348 11.0211 4.4395 11.1368 4.72143C11.2525 5.00336 11.312 5.30565 11.3119 5.61094C11.3119 6.2331 11.0712 6.81799 10.6379 7.25666L8.26497 9.6593C8.82043 10.8989 9.59269 12.0266 10.5445 12.988C11.4939 13.9541 12.6076 14.7388 13.8321 15.3046L16.2051 12.902C16.4178 12.6857 16.6707 12.514 16.9491 12.3969C17.2276 12.2798 17.5262 12.2196 17.8277 12.2196C18.4422 12.2196 19.0198 12.4633 19.4531 12.902L22.7011 16.1848C22.915 16.4006 23.0847 16.6571 23.2003 16.9396C23.316 17.222 23.3754 17.5248 23.375 17.8306C23.375 18.4527 23.1343 19.0376 22.7011 19.4763L19.6909 22.524C19 23.2265 18.0457 23.625 17.0659 23.625C16.8592 23.625 16.661 23.6078 16.4656 23.5734C12.6485 22.9369 8.86246 20.8812 5.80704 17.7904C2.75445 14.7025 0.72694 10.8721 0.0898037 6.99575C-0.102753 5.81164 0.285192 4.59311 1.12904 3.73298Z" fill="currentColor"/>
</svg>
