<svg width="234" height="234" viewBox="0 0 234 234" fill="none" xmlns="http://www.w3.org/2000/svg">
<path d="M31 220V29.3831C31 27.6013 33.1543 26.709 34.4142 27.9689L115.109 108.663C115.89 109.444 117.156 109.444 117.937 108.663L198.632 27.9689C199.892 26.709 202.046 27.6013 202.046 29.3831V220" stroke="black" stroke-width="15" stroke-linecap="square"/>
<path d="M56.3906 12L114.999 70.6087C115.78 71.3898 117.047 71.3898 117.828 70.6088L176.437 12" stroke="black" stroke-width="15" stroke-linecap="square"/>
<path d="M158.907 109L75.3457 192.561" stroke="black" stroke-width="15" stroke-linecap="round"/>
<path d="M116 156L154.446 222.59" stroke="black" stroke-width="15" stroke-linecap="square"/>
<path d="M66.5 220.5V228H81.5V220.5H66.5ZM81.5 109.782C81.5 105.64 78.1421 102.282 74 102.282C69.8579 102.282 66.5 105.64 66.5 109.782H81.5ZM81.5 220.5V109.782H66.5V220.5H81.5Z" fill="black"/>
</svg>
