<svg width="1em" height="1em" viewBox="0 0 16 16" fill="none" xmlns="http://www.w3.org/2000/svg">
<path d="M12.3334 13.3333H3.66669L1.66669 15.3333V4C1.66669 2.9 2.56669 2 3.66669 2H12.3334C13.4334 2 14.3334 2.9 14.3334 4V11.3333C14.3334 12.4333 13.4334 13.3333 12.3334 13.3333Z" fill="currentColor"/>
<path d="M8.66665 6.66669H7.33331V10.3334H8.66665V6.66669Z" fill="white"/>
<path d="M7.99998 5.66668C8.36817 5.66668 8.66665 5.3682 8.66665 5.00001C8.66665 4.63182 8.36817 4.33334 7.99998 4.33334C7.63179 4.33334 7.33331 4.63182 7.33331 5.00001C7.33331 5.3682 7.63179 5.66668 7.99998 5.66668Z" fill="white"/>
</svg>
