<svg width="589" height="901" viewBox="0 0 589 901" fill="none" xmlns="http://www.w3.org/2000/svg">
<path d="M287.235 806.03L275.756 831.622L264.465 805.84L264.461 805.831L251.029 778.392C251.028 778.39 251.027 778.388 251.026 778.386C250.159 776.363 249.319 775.06 248.129 774.275C246.938 773.489 245.435 773.25 243.313 773.25H220.47C218.566 773.25 217.366 774.059 216.79 775.237C216.223 776.396 216.284 777.863 216.781 779.156L216.785 779.167L216.791 779.178L259.542 864.681L245.207 893.925C244.402 895.142 244.253 896.704 244.684 897.969C245.118 899.248 246.159 900.25 247.728 900.25H269.035C271.141 900.25 272.693 900.158 274.029 899.402C275.368 898.644 276.452 897.243 277.705 894.737L277.706 894.734L333.566 779.175L333.571 779.166L333.574 779.156C334.072 777.863 334.132 776.396 333.566 775.237C332.99 774.059 331.79 773.25 329.886 773.25H308.578C306.057 773.25 304.454 773.686 303.238 774.673C302.036 775.65 301.247 777.143 300.29 779.151L287.238 806.023L287.235 806.03ZM32.031 800.048H78.6187C80.8608 800.048 82.3385 799.512 83.2459 798.475C84.1469 797.445 84.4355 795.976 84.4355 794.231V779.066C84.4355 777.321 84.1469 775.852 83.2459 774.823C82.3385 773.786 80.8608 773.25 78.6187 773.25H7.21034C5.46524 773.25 3.99635 773.538 2.9666 774.439C1.92956 775.347 1.39355 776.824 1.39355 779.066V894.433C1.39355 896.675 1.92956 898.153 2.9666 899.06C3.99635 899.961 5.46524 900.25 7.21034 900.25H26.2142C27.9593 900.25 29.4282 899.961 30.4579 899.06C31.4949 898.153 32.031 896.675 32.031 894.433V800.048ZM154.066 773.442H110.875C108.633 773.442 107.155 773.978 106.248 775.015C105.347 776.044 105.058 777.513 105.058 779.258V894.433C105.058 896.675 105.594 898.153 106.631 899.06C107.661 899.961 109.13 900.25 110.875 900.25H129.879C131.624 900.25 133.093 899.961 134.123 899.06C135.16 898.153 135.696 896.675 135.696 894.433V862.818H153.874C170.329 862.818 183.017 858.391 191.594 850.588C200.173 842.782 204.609 831.624 204.609 818.226C204.609 804.925 200.27 793.72 191.763 785.841C183.259 777.965 170.618 773.442 154.066 773.442ZM153.874 836.404H135.696V801.008H153.874C161.316 801.008 166.623 803.011 170.068 806.219C173.511 809.427 175.123 813.866 175.123 818.802C175.123 823.543 173.512 827.936 170.068 831.144C166.622 834.353 161.315 836.404 153.874 836.404ZM448.769 773.442H356.821C355.076 773.442 353.607 773.73 352.578 774.631C351.541 775.539 351.005 777.016 351.005 779.258V894.433C351.005 896.675 351.541 898.153 352.578 899.06C353.607 899.961 355.076 900.25 356.821 900.25H375.825C377.663 900.25 379.136 899.963 380.143 899.058C381.157 898.148 381.642 896.669 381.642 894.433V800.816H423.949V894.433C423.949 896.675 424.485 898.153 425.522 899.06C426.551 899.961 428.02 900.25 429.765 900.25H448.769C450.514 900.25 451.983 899.961 453.013 899.06C454.05 898.153 454.586 896.675 454.586 894.433V779.258C454.586 777.016 454.05 775.539 453.013 774.631C451.983 773.73 450.514 773.442 448.769 773.442ZM580.178 773.442H488.23C486.485 773.442 485.016 773.73 483.986 774.631C482.949 775.539 482.413 777.016 482.413 779.258V894.433C482.413 896.675 482.949 898.153 483.986 899.06C485.016 899.961 486.485 900.25 488.23 900.25H507.234C509.072 900.25 510.544 899.963 511.552 899.058C512.566 898.148 513.051 896.669 513.051 894.433V800.816H555.357V894.433C555.357 896.675 555.893 898.153 556.93 899.06C557.96 899.961 559.429 900.25 561.174 900.25H580.178C581.923 900.25 583.392 899.961 584.422 899.06C585.459 898.153 585.995 896.675 585.995 894.433V779.258C585.995 777.016 585.459 775.539 584.422 774.631C583.392 773.73 581.923 773.442 580.178 773.442Z" fill="currentColor" stroke="currentColor" stroke-width="0.5"/>
<mask id="mask0_64_1373" style="mask-type:alpha" maskUnits="userSpaceOnUse" x="0" y="0" width="589" height="727">
<rect width="588.461" height="726.922" transform="matrix(1 0 0 -1 0 726.922)" fill="#D9D9D9"/>
</mask>
<g mask="url(#mask0_64_1373)">
<path d="M5.18945 708.045V728.045H45.1895V708.045H5.18945ZM35.9335 103.752L50.0756 89.6096L50.0756 89.6096L35.9335 103.752ZM289.867 357.685L304.009 343.543L304.009 343.543L289.867 357.685ZM298.768 357.685L312.91 371.827L312.91 371.827L298.768 357.685ZM552.702 103.752L538.559 89.6096L538.559 89.6096L552.702 103.752ZM543.446 708.045V728.045H583.446V708.045H543.446ZM119.232 39.3579L105.09 25.2157L76.8058 53.5L90.9479 67.6421L119.232 39.3579ZM289.523 237.933L275.381 252.075L275.381 252.075L289.523 237.933ZM298.424 237.933L312.566 252.075L312.566 252.075L298.424 237.933ZM496.999 67.6421L511.141 53.5L482.857 25.2157L468.715 39.3579L496.999 67.6421ZM441.837 372.887C449.647 365.076 449.647 352.413 441.837 344.603C434.026 336.792 421.363 336.792 413.553 344.603L441.837 372.887ZM150.598 607.557C142.787 615.368 142.787 628.031 150.598 635.842C158.408 643.652 171.072 643.652 178.882 635.842L150.598 607.557ZM310.138 496.904L300.395 479.437L265.463 498.923L275.206 516.39L310.138 496.904ZM404.225 747.683C409.606 757.33 421.788 760.788 431.435 755.407C441.081 750.026 444.539 737.844 439.158 728.197L404.225 747.683ZM140.504 709.619V729.619H180.504V709.619H140.504ZM180.504 361.205C180.504 350.159 171.55 341.205 160.504 341.205C149.458 341.205 140.504 350.159 140.504 361.205H180.504ZM45.1895 708.045V108.202H5.18945V708.045H45.1895ZM21.7914 117.894L275.725 371.827L304.009 343.543L50.0756 89.6096L21.7914 117.894ZM312.91 371.827L566.844 117.894L538.559 89.6096L284.626 343.543L312.91 371.827ZM543.446 108.202V708.045H583.446V108.202H543.446ZM566.844 117.894C558.209 126.528 543.446 120.413 543.446 108.202H583.446C583.446 84.7769 555.124 73.0456 538.559 89.6096L566.844 117.894ZM275.725 371.827C285.993 382.095 302.642 382.096 312.91 371.827L284.626 343.543C289.979 338.19 298.657 338.19 304.009 343.543L275.725 371.827ZM45.1895 108.202C45.1895 120.413 30.4257 126.528 21.7914 117.894L50.0756 89.6096C33.5116 73.0456 5.18945 84.7767 5.18945 108.202H45.1895ZM90.9479 67.6421L275.381 252.075L303.665 223.791L119.232 39.3579L90.9479 67.6421ZM312.566 252.075L496.999 67.6421L468.715 39.3579L284.282 223.791L312.566 252.075ZM275.381 252.075C285.649 262.344 302.298 262.344 312.566 252.075L284.282 223.791C289.634 218.438 298.313 218.438 303.665 223.791L275.381 252.075ZM413.553 344.603L150.598 607.557L178.882 635.842L441.837 372.887L413.553 344.603ZM275.206 516.39L404.225 747.683L439.158 728.197L310.138 496.904L275.206 516.39ZM180.504 709.619V361.205H140.504V709.619H180.504Z" fill="currentColor"/>
</g>
</svg>
