<svg width="1em" height="1em" viewBox="0 0 20 19" fill="none" xmlns="http://www.w3.org/2000/svg">
<g clip-path="url(#clip0_69_1394)">
<path d="M17.6136 17.67H19.375V19.6333H0V17.67H1.76136V0.981667C1.76136 0.721312 1.85415 0.471622 2.01931 0.287523C2.18447 0.103425 2.40847 0 2.64205 0H16.733C16.9665 0 17.1905 0.103425 17.3557 0.287523C17.5209 0.471622 17.6136 0.721312 17.6136 0.981667V17.67ZM6.16477 8.835V10.7983H8.80682V8.835H6.16477ZM6.16477 4.90833V6.87167H8.80682V4.90833H6.16477ZM6.16477 12.7617V14.725H8.80682V12.7617H6.16477ZM10.5682 12.7617V14.725H13.2102V12.7617H10.5682ZM10.5682 8.835V10.7983H13.2102V8.835H10.5682ZM10.5682 4.90833V6.87167H13.2102V4.90833H10.5682Z" fill="currentColor"/>
</g>
<defs>
<clipPath id="clip0_69_1394">
<rect width="1em" height="1em" fill="white"/>
</clipPath>
</defs>
</svg>
