<svg width="1em" height="1em" viewBox="0 0 13 13" fill="none" xmlns="http://www.w3.org/2000/svg">
<path d="M6.61787 0C3.09345 0 0.236031 2.83507 0.236031 6.33262C0.236031 7.52903 0.570665 8.64796 1.15181 9.60256L0 13L3.53333 11.8775C4.44763 12.3791 5.49915 12.6652 6.61787 12.6652C10.1428 12.6652 13 9.82977 13 6.33262C13 2.83507 10.1428 0 6.61787 0ZM9.79132 8.73757C9.64118 9.10978 8.96216 9.44946 8.66256 9.4651C8.36327 9.48098 8.35473 9.69707 6.723 8.98822C5.09147 8.2792 4.10989 6.55525 4.0325 6.44423C3.95505 6.33361 3.40049 5.54331 3.4304 4.74799C3.46052 3.95252 3.89605 3.57723 4.0515 3.42115C4.20678 3.26483 4.3848 3.23683 4.4935 3.23506C4.62199 3.23297 4.70522 3.23123 4.80031 3.23474C4.89531 3.23833 5.03802 3.21486 5.16158 3.54346C5.28508 3.87203 5.58069 4.67959 5.61849 4.76189C5.65628 4.84427 5.67967 4.93965 5.62146 5.04542C5.56307 5.15142 5.53318 5.21764 5.44848 5.30899C5.36331 5.40034 5.26932 5.51333 5.19335 5.58318C5.10862 5.66051 5.02012 5.74487 5.1092 5.91018C5.19823 6.07538 5.50538 6.61694 5.97333 7.06324C6.57472 7.63695 7.09336 7.82725 7.25295 7.91395C7.41299 8.00112 7.50849 7.99143 7.60773 7.887C7.7065 7.78256 8.03252 7.43008 8.14734 7.27272C8.26211 7.11492 8.36965 7.14582 8.51709 7.20513C8.66444 7.26468 9.45022 7.68555 9.61028 7.77246C9.77017 7.8592 9.87704 7.90388 9.91526 7.97269C9.95347 8.04175 9.9414 8.36532 9.79132 8.73757Z" fill="currentColor"/>
</svg>
